<?xml version="1.0" encoding="UTF-8"?>
<svg xmlns="http://www.w3.org/2000/svg" xmlns:xlink="http://www.w3.org/1999/xlink" width="600pt" height="300pt" viewBox="0 0 600 300" version="1.1">
<g id="surface1">
<rect x="0" y="0" width="600" height="300" style="fill:rgb(0%,0%,0%);fill-opacity:1;stroke:none;"/>
<path style=" stroke:none;fill-rule:nonzero;fill:rgb(100%,0%,0%);fill-opacity:1;" d="M 0 0 L 66.667969 0 L 66.667969 150 L 0 150 Z "/>
<path style=" stroke:none;fill-rule:nonzero;fill:rgb(100%,64.705882%,0%);fill-opacity:1;" d="M 0 150 L 66.667969 150 L 66.667969 300 L 0 300 Z "/>
<path style=" stroke:none;fill-rule:nonzero;fill:rgb(100%,0%,0%);fill-opacity:1;" d="M 66.667969 0 L 133.335938 0 L 133.335938 150 L 66.667969 150 Z "/>
<path style=" stroke:none;fill-rule:nonzero;fill:rgb(0%,50.196078%,0%);fill-opacity:1;" d="M 66.667969 150 L 133.335938 150 L 133.335938 300 L 66.667969 300 Z "/>
<path style=" stroke:none;fill-rule:nonzero;fill:rgb(100%,0%,0%);fill-opacity:1;" d="M 133.332031 0 L 200 0 L 200 150 L 133.332031 150 Z "/>
<path style=" stroke:none;fill-rule:nonzero;fill:rgb(0%,100%,100%);fill-opacity:1;" d="M 133.332031 150 L 200 150 L 200 300 L 133.332031 300 Z "/>
<path style=" stroke:none;fill-rule:nonzero;fill:rgb(0%,0%,100%);fill-opacity:1;" d="M 200 0 L 266.667969 0 L 266.667969 150 L 200 150 Z "/>
<path style=" stroke:none;fill-rule:nonzero;fill:rgb(100%,64.705882%,0%);fill-opacity:1;" d="M 200 150 L 266.667969 150 L 266.667969 300 L 200 300 Z "/>
<path style=" stroke:none;fill-rule:nonzero;fill:rgb(0%,0%,100%);fill-opacity:1;" d="M 266.667969 0 L 333.335938 0 L 333.335938 150 L 266.667969 150 Z "/>
<path style=" stroke:none;fill-rule:nonzero;fill:rgb(0%,50.196078%,0%);fill-opacity:1;" d="M 266.667969 150 L 333.335938 150 L 333.335938 300 L 266.667969 300 Z "/>
<path style=" stroke:none;fill-rule:nonzero;fill:rgb(0%,0%,100%);fill-opacity:1;" d="M 333.332031 0 L 400 0 L 400 150 L 333.332031 150 Z "/>
<path style=" stroke:none;fill-rule:nonzero;fill:rgb(0%,100%,100%);fill-opacity:1;" d="M 333.332031 150 L 400 150 L 400 300 L 333.332031 300 Z "/>
<path style=" stroke:none;fill-rule:nonzero;fill:rgb(0%,0%,0%);fill-opacity:1;" d="M 400 0 L 466.667969 0 L 466.667969 150 L 400 150 Z "/>
<path style=" stroke:none;fill-rule:nonzero;fill:rgb(100%,64.705882%,0%);fill-opacity:1;" d="M 400 150 L 466.667969 150 L 466.667969 300 L 400 300 Z "/>
<path style=" stroke:none;fill-rule:nonzero;fill:rgb(0%,0%,0%);fill-opacity:1;" d="M 466.667969 0 L 533.335938 0 L 533.335938 150 L 466.667969 150 Z "/>
<path style=" stroke:none;fill-rule:nonzero;fill:rgb(0%,50.196078%,0%);fill-opacity:1;" d="M 466.667969 150 L 533.335938 150 L 533.335938 300 L 466.667969 300 Z "/>
<path style=" stroke:none;fill-rule:nonzero;fill:rgb(0%,0%,0%);fill-opacity:1;" d="M 533.332031 0 L 600 0 L 600 150 L 533.332031 150 Z "/>
<path style=" stroke:none;fill-rule:nonzero;fill:rgb(0%,100%,100%);fill-opacity:1;" d="M 533.332031 150 L 600 150 L 600 300 L 533.332031 300 Z "/>
</g>
</svg>
